<?xml version="1.0" encoding="utf-8"?>
<!-- Generator: Adobe Illustrator 28.0.0, SVG Export Plug-In . SVG Version: 6.00 Build 0)  -->
<svg version="1.1" id="Layer_1" xmlns:sketch="http://www.bohemiancoding.com/sketch/ns"
	 xmlns="http://www.w3.org/2000/svg" xmlns:xlink="http://www.w3.org/1999/xlink" x="0px" y="0px" viewBox="0 0 512 512"
	 style="enable-background:new 0 0 512 512;" xml:space="preserve">
<style type="text/css">
	.st0{fill-rule:evenodd;clip-rule:evenodd;fill:#FF6A36;}
	.st1{fill:#FFFFFF;}
	.st2{fill:none;stroke:#FF6A36;stroke-width:20;stroke-linecap:round;stroke-linejoin:round;stroke-miterlimit:133.3333;}
</style>
<g id="SVGRepo_bgCarrier">
</g>
<g id="SVGRepo_tracerCarrier">
</g>
<g id="SVGRepo_bgCarrier_00000070823809157176946300000007652464086621387679_">
</g>
<g id="SVGRepo_tracerCarrier_00000172420838536856069840000006089853052073721478_">
</g>
<g>
	<g id="SVGRepo_iconCarrier_00000093150705140046703690000012750610029141623741_">
		<path class="st0" d="M256,0C114.6,0,0,114.6,0,256s114.6,256,256,256s256-114.6,256-256S397.4,0,256,0"/>
	</g>
	<g>
		<g>
			<g>
				<path class="st1" d="M369.1,357.8H256c-6.8,0-11.3-4.5-11.3-11.3V166.7c0-5.7,4.5-10.2,10.2-11.3c4.5-1.1,9-1.1,12.4-1.1
					c36.2,0,72.4,30.5,84.8,70.1c5.7-1.1,11.3-2.3,17-2.3c37.3,0,67.8,30.5,67.8,67.8S406.4,357.8,369.1,357.8z"/>
			</g>
		</g>
		<g>
			<g>
				<path class="st1" d="M222.1,357.8c-6.8,0-11.3-4.5-11.3-11.3V188.2c0-6.8,4.5-11.3,11.3-11.3c6.8,0,11.3,4.5,11.3,11.3v158.3
					C233.4,353.2,228.9,357.8,222.1,357.8z"/>
			</g>
		</g>
		<g>
			<g>
				<path class="st1" d="M188.2,346.4c-6.8,0-11.3-4.5-11.3-11.3V256c0-6.8,4.5-11.3,11.3-11.3c6.8,0,11.3,4.5,11.3,11.3v79.1
					C199.5,341.9,194.9,346.4,188.2,346.4z"/>
			</g>
		</g>
		<g>
			<g>
				<path class="st1" d="M154.2,357.8c-6.8,0-11.3-4.5-11.3-11.3V222.1c0-6.8,4.5-11.3,11.3-11.3s11.3,4.5,11.3,11.3v124.4
					C165.6,353.2,161,357.8,154.2,357.8z"/>
			</g>
		</g>
		<g>
			<g>
				<path class="st1" d="M120.3,346.4c-6.8,0-11.3-4.5-11.3-11.3v-67.8c0-6.8,4.5-11.3,11.3-11.3s11.3,4.5,11.3,11.3v67.8
					C131.6,341.9,127.1,346.4,120.3,346.4z"/>
			</g>
		</g>
		<g>
			<g>
				<path class="st1" d="M86.4,335.1c-6.8,0-11.3-4.5-11.3-11.3v-45.2c0-6.8,4.5-11.3,11.3-11.3s11.3,4.5,11.3,11.3v45.2
					C97.7,330.6,93.2,335.1,86.4,335.1z"/>
			</g>
		</g>
	</g>
	<g>
		<path class="st2" d="M280.9,284.3h75.4"/>
		<path class="st2" d="M318.6,246.6V322"/>
	</g>
</g>
</svg>
